<svg width="44" height="36" viewBox="0 0 44 36" fill="none" xmlns="http://www.w3.org/2000/svg">
<path d="M2.72026 0.251547L16.1181 8.12181C18.6494 9.60871 20.2988 12.233 20.5401 15.1572C20.5401 15.1572 21.031 19.0554 21.069 21.5666C21.1083 24.1628 20.7077 28.2056 20.7077 28.2056L20.4318 32.6167C20.3129 34.5185 18.7348 36 16.8281 36H6.67989C5.68281 36 4.87452 35.1922 4.87452 34.1958V26.9791C4.87452 24.1705 7.01518 21.8616 9.75498 21.5927L3.42177 17.769C1.29793 16.4867 0 14.1876 0 11.7079V1.80691C0 0.411783 1.51673 -0.455437 2.72026 0.251547Z" fill="url(#paint0_linear_4837_417)"/>
<path d="M41.2797 0.251547L27.8819 8.12181C25.3506 9.60871 23.7012 12.233 23.4599 15.1572C23.4599 15.1572 22.969 19.0554 22.931 21.5666C22.8917 24.1628 23.2923 28.2056 23.2923 28.2056L23.5682 32.6167C23.6871 34.5185 25.2652 36 27.1719 36H37.3201C38.3172 36 39.1255 35.1922 39.1255 34.1958V26.9791C39.1255 24.1705 36.9848 21.8616 34.245 21.5927L40.5782 17.769C42.7021 16.4867 44 14.1876 44 11.7079V1.80691C44 0.411783 42.4833 -0.455437 41.2797 0.251547Z" fill="url(#paint1_linear_4837_417)"/>
<path d="M21.4889 2.77793C21.6916 2.34547 22.3084 2.34547 22.511 2.77793L22.5305 2.81938C23.1987 4.2451 24.1816 5.53039 25.3742 6.56481C25.6554 6.80871 25.6554 7.25379 25.3742 7.49769C24.1816 8.53211 23.1987 9.8174 22.5305 11.2431L22.5111 11.2846C22.3084 11.717 21.6916 11.717 21.4889 11.2846L21.4695 11.2431C20.8013 9.8174 19.8184 8.53211 18.6258 7.49769C18.3446 7.25379 18.3446 6.80871 18.6258 6.56481C19.8184 5.53039 20.8013 4.2451 21.4695 2.81938L21.4889 2.77793Z" fill="url(#paint2_linear_4837_417)"/>
<defs>
<linearGradient id="paint0_linear_4837_417" x1="9.4507" y1="-3.91921e-07" x2="30.63" y2="36.9153" gradientUnits="userSpaceOnUse">
<stop stop-color="#FF8F6C"/>
<stop offset="0.5" stop-color="#F0513C"/>
<stop offset="1" stop-color="#EB3B50"/>
</linearGradient>
<linearGradient id="paint1_linear_4837_417" x1="9.4507" y1="-3.91921e-07" x2="30.63" y2="36.9153" gradientUnits="userSpaceOnUse">
<stop stop-color="#FF8F6C"/>
<stop offset="0.5" stop-color="#F0513C"/>
<stop offset="1" stop-color="#EB3B50"/>
</linearGradient>
<linearGradient id="paint2_linear_4837_417" x1="9.4507" y1="-3.91921e-07" x2="30.63" y2="36.9153" gradientUnits="userSpaceOnUse">
<stop stop-color="#FF8F6C"/>
<stop offset="0.5" stop-color="#F0513C"/>
<stop offset="1" stop-color="#EB3B50"/>
</linearGradient>
</defs>
</svg>
